<svg id="_レイヤー_1" xmlns="http://www.w3.org/2000/svg" viewBox="0 0 1320.29 461.74"><defs><style>.cls-3{fill:#c7b994}.cls-4{fill:#fff}</style></defs><path class="cls-3" d="M37.15 5.03l419.82 21.53-62.66 255.23-308.18 47.77L37.15 5.03M31.6 0l50.56 334.97 316.01-48.98 64.78-263.87L31.6 0z" opacity=".16"/><path class="cls-4" d="M584.15 267.03l-323.44-14.22 20.13-178.55 327.47-47.4-24.16 240.17z" opacity=".1"/><path class="cls-4" d="M346.03 455.05L0 216.46 58.46 67.94l434.51 107.44-146.94 279.67z" opacity=".13"/><g id="_パス_64" opacity=".16" stroke="#fff" stroke-miterlimit="10"><path d="M1065.23 460.43L680.61 256.99l80.31-152.89 426.47 97.35-122.16 258.99z" fill="#fff"/><path d="M1186.74 201.75l-425.59-97.14-79.94 152.19 383.81 203.01 121.72-258.06m1.3-.63l-122.6 259.93L680 257.18l80.68-153.6 427.36 97.55z" fill="#707070"/></g><path id="_パス_65" d="M984.86 91.2l322.63-40.52-24.84 230.36h37.62l-349.39-15.09L984.86 91.2z" style="isolation:isolate" stroke="#fff" stroke-miterlimit="10" opacity=".12" fill="none"/><g id="_パス_66" opacity=".16"><path d="M724.18 11.07l362.65 47.49L1030.67 308l-306.48 51.08V11.07z" fill="none"/><path class="cls-3" d="M727.59 355.06V14.95l355.1 46.5-54.84 243.57-1.33.22-298.93 49.82zm4-335.56v330.83l292.95-48.83 53.28-236.67-346.23-45.34z"/></g></svg>