<?xml version="1.0" encoding="UTF-8"?><svg id="_レイヤー_1" xmlns="http://www.w3.org/2000/svg" viewBox="0 0 1320.29 461.74"><defs><style>.cls-1,.cls-2{fill:none;}.cls-3{fill:#c7b994;}.cls-4,.cls-5{fill:#fff;}.cls-6{opacity:.1;}.cls-7{opacity:.16;}.cls-8{opacity:.16;}.cls-9{opacity:.16;}.cls-10{opacity:.13;}.cls-2{isolation:isolate;opacity:.12;}.cls-2,.cls-11,.cls-5{stroke:#fff;stroke-miterlimit:10;}.cls-11{fill:#707070;}</style></defs><g class="cls-9"><path class="cls-3" d="M37.15,5.03l419.82,21.53-62.66,255.23-308.18,47.77L37.15,5.03M31.6,0l50.56,334.97,316.01-48.98L462.95,22.12,31.6,0h0Z"/></g><g class="cls-6"><polygon class="cls-4" points="584.15 267.03 260.71 252.81 280.84 74.26 608.31 26.86 584.15 267.03"/></g><g class="cls-10"><polygon class="cls-4" points="346.03 455.05 0 216.46 58.46 67.94 492.97 175.38 346.03 455.05"/></g><g id="_パス_64" class="cls-7"><path class="cls-5" d="M1065.23,460.43l-384.62-203.44,80.31-152.89,426.47,97.35-122.16,258.99Z"/><path class="cls-11" d="M1186.74,201.75l-425.59-97.14-79.94,152.19,383.81,203.01,121.72-258.06M1188.04,201.12l-122.6,259.93-385.44-203.87,80.68-153.6,427.36,97.55Z"/></g><path id="_パス_65" class="cls-2" d="M984.86,91.2l322.63-40.52-24.84,230.36h37.62l-349.39-15.09,13.98-174.75Z"/><g id="_パス_66" class="cls-8"><path class="cls-1" d="M724.18,11.07l362.65,47.49-56.16,249.44-306.48,51.08V11.07Z"/><path class="cls-3" d="M727.59,355.06V14.95l355.1,46.5-54.84,243.57-1.33.22-298.93,49.82ZM731.59,19.5v330.83l292.95-48.83,53.28-236.67-346.23-45.34Z"/></g></svg>